<svg xmlns="http://www.w3.org/2000/svg" width="75.003" height="100.004" viewBox="0 0 75.003 100.004"><defs><style>.a{fill:#358ada;}.b{fill:#ebebeb;}.c{fill:#fedac6;}.d{fill:#dbdbdb;}.e{fill:#2867a1;}.f{fill:#f5c4b0;}.g{fill:#e19034;}.h{fill:#f5ad76;}.i{fill:#fecb66;}</style></defs><g transform="translate(0.134)"><path class="a" d="M135.666,315.713l-1.78-.117v-3.358a5.037,5.037,0,0,0-5.037-5.037H95.27a5.037,5.037,0,0,0-5.037,5.037V315.6l-1.78.2A13.432,13.432,0,0,0,76.8,329.027V347.5h70.517V329.027A13.433,13.433,0,0,0,135.666,315.713Z" transform="translate(-75.038 -247.493)"/><path class="b" d="M208.02,378.516a15.264,15.264,0,0,1-11.753-5.524v27.351h23.506V372.992A15.265,15.265,0,0,1,208.02,378.516Z" transform="translate(-170.998 -300.34)"/><path class="c" d="M219.369,280a3.359,3.359,0,0,1-2.955-3.358V264.533h-16.79v12.122a3.359,3.359,0,0,1-2.955,3.358h-.4v5.826a15.262,15.262,0,0,0,23.506,0v-5.793Z" transform="translate(-170.998 -213.003)"/><path class="d" d="M202.983,377.66a15.1,15.1,0,0,1-6.716-4.668v27.351h6.716Z" transform="translate(-170.998 -300.34)"/><path class="e" d="M76.8,370.77v18.469h6.716V359.168A13.429,13.429,0,0,0,76.8,370.77Z" transform="translate(-75.037 -289.236)"/><path class="c" d="M341.333,155.141h3.358a5.037,5.037,0,0,0,5.037-5.037h0a5.037,5.037,0,0,0-5.037-5.037h-1.679" transform="translate(-287.522 -116.756)"/><path class="f" d="M136.4,155.141h-3.358A5.037,5.037,0,0,1,128,150.1h0a5.037,5.037,0,0,1,5.037-5.037h1.679" transform="translate(-116.163 -116.756)"/><path class="g" d="M171.654,25.323h-33.58A10.074,10.074,0,0,1,128,15.249h6.716a5.037,5.037,0,0,1-5.037-5.037V8.533h25.185A16.79,16.79,0,0,1,171.654,25.323Z" transform="translate(-116.163 -6.854)"/><path class="c" d="M162.133,93.867v16.79l.4,5.239a17.962,17.962,0,0,0,19.343,16.533q.8-.07,1.6-.213a18.38,18.38,0,0,0,14.7-17.008l.347-4.55V93.867Z" transform="translate(-143.311 -75.617)"/><path class="f" d="M168.85,106.069V85.333h-6.716V103.8l.4,5.239a18.015,18.015,0,0,0,12.173,15.581l-3.123-6.934A26.025,26.025,0,0,1,168.85,106.069Z" transform="translate(-143.581 -68.744)"/><path class="h" d="M168.85,85.333a13.328,13.328,0,0,1-6.716,11.753V85.333Z" transform="translate(-143.581 -68.682)"/><path class="i" d="M322.45,103.941s-6.716-3.358-6.716-10.074h6.716Z" transform="translate(-266.96 -75.548)"/><path class="f" d="M230.124,286.637V281.6h-16.79v5.037C219.63,290,223.828,290,230.124,286.637Z" transform="translate(-184.707 -226.631)"/><path class="h" d="M128,42.667a10.88,10.88,0,0,0,10.074,10.074h31.9A233.209,233.209,0,0,1,128,42.667Z" transform="translate(-116.163 -34.272)"/><path class="e" d="M155.5,314.537a3.6,3.6,0,0,1,1.209-1.259,3.56,3.56,0,0,0,1.679-3.022V307.2H151.4a6.465,6.465,0,0,0-5.373,10.074l2.048,3.056A12.21,12.21,0,0,1,155.5,314.537Z" transform="translate(-129.761 -247.264)"/><path d="M164.8,20.148H131.22A11.766,11.766,0,0,1,119.467,8.4a1.68,1.68,0,0,1,1.679-1.679h.9a6.667,6.667,0,0,1-.9-3.358V1.679A1.68,1.68,0,0,1,122.825,0H148.01a18.491,18.491,0,0,1,18.469,18.469A1.678,1.678,0,0,1,164.8,20.148ZM122.994,10.074a8.409,8.409,0,0,0,8.226,6.716h31.807A15.131,15.131,0,0,0,148.01,3.358H124.5a3.361,3.361,0,0,0,3.358,3.358,1.679,1.679,0,1,1,0,3.358Z" transform="translate(-109.309)"/><path d="M159.8,105.444l-1.5-3,.752,1.5-.756-1.5c.057-.03,5.793-3.007,5.793-8.575h3.358C167.444,101.532,160.112,105.286,159.8,105.444Z" transform="translate(-140.496 -75.55)"/><path d="M314.845,105.444c-.312-.158-7.645-3.912-7.645-11.577h3.358c0,5.568,5.734,8.544,5.793,8.575Z" transform="translate(-260.105 -75.55)"/><ellipse cx="3.261" cy="4.076" rx="3.261" ry="4.076" transform="translate(24.324 27.134)"/><ellipse cx="3.261" cy="4.076" rx="3.261" ry="4.076" transform="translate(43.89 27.134)"/><path d="M237.114,161.131h-5.037a1.679,1.679,0,0,1-1.56-2.3l3.358-8.4,3.118,1.247-2.436,6.091h2.557v3.358Z" transform="translate(-198.413 -121.077)"/><path d="M239.218,213.517h-.285v-3.358h.285a9.74,9.74,0,0,0,6.923-2.868l2.374,2.376A13.072,13.072,0,0,1,239.218,213.517Z" transform="translate(-205.269 -166.823)"/><path d="M351.546,149.964h-1.679v-3.358h1.679a3.358,3.358,0,1,0,0-6.716h-1.679v-3.358h1.679a6.716,6.716,0,0,1,0,13.432Z" transform="translate(-294.377 -109.895)"/><path d="M127.862,149.966h-1.679a6.716,6.716,0,1,1,0-13.432h1.679v3.358h-1.679a3.358,3.358,0,1,0,0,6.716h1.679Z" transform="translate(-109.309 -109.897)"/><path d="M173.766,134.173a19.859,19.859,0,0,1-19.524-16.362q-.156-.882-.233-1.775l-.4-5.25,0-16.919h3.358v16.79l.4,5.109c.04.48.106.97.191,1.457a16.488,16.488,0,0,0,19.1,13.338A16.779,16.779,0,0,0,190.186,115.1l.354-4.577,0-16.659h3.358v16.79l-.358,4.679a19.8,19.8,0,0,1-19.771,18.837Z" transform="translate(-136.726 -75.623)"/><path d="M191.091,326.933h-3.358V293.723a1.678,1.678,0,0,1,1.679-1.679h.286a1.679,1.679,0,0,0,1.394-1.667V281.6h3.358v8.764a5.031,5.031,0,0,1-3.358,4.775Z" transform="translate(-164.143 -226.93)"/><path d="M71.625,374.927H68.267V356.458a15.161,15.161,0,0,1,13.11-14.978l1.891-.129.223,3.351-1.78.117a11.769,11.769,0,0,0-10.086,11.639v18.469Z" transform="translate(-68.183 -274.923)"/><path d="M202.742,375.815a16.89,16.89,0,0,1-13.046-6.132l2.586-2.141a13.587,13.587,0,0,0,20.921,0l2.584,2.144A16.89,16.89,0,0,1,202.742,375.815Z" transform="translate(-165.72 -295.799)"/><path d="M146.882,324.787l-9-13.432a8.173,8.173,0,0,1,6.766-12.688h6.986v3.358H144.65a4.816,4.816,0,0,0-3.974,7.465l9,13.427Z" transform="translate(-123.008 -240.482)"/><path d="M163.813,440.1a1.678,1.678,0,0,1-1.679-1.679V428.346a1.679,1.679,0,1,1,3.358,0V438.42A1.679,1.679,0,0,1,163.813,440.1Z" transform="translate(-143.581 -343.453)"/><path d="M296.849,326.933H293.49v-31.8a5.033,5.033,0,0,1-3.358-4.789V281.6h3.358v8.764a1.681,1.681,0,0,0,1.394,1.679h.286a1.677,1.677,0,0,1,1.679,1.679Z" transform="translate(-246.395 -226.93)"/><path d="M381.591,374.933h-3.358V356.464a11.788,11.788,0,0,0-10.2-11.649l-1.667-.106.223-3.351,1.78.117a15.18,15.18,0,0,1,13.219,14.989v18.469Z" transform="translate(-307.632 -274.93)"/><path d="M303.42,324.787l-2.79-1.869,9-13.432a4.817,4.817,0,0,0-3.978-7.461h-6.985v-3.358h6.985a8.176,8.176,0,0,1,6.771,12.683Z" transform="translate(-253.251 -240.481)"/><path d="M334.479,440.1a1.677,1.677,0,0,1-1.679-1.679V428.346a1.679,1.679,0,1,1,3.358,0V438.42A1.677,1.677,0,0,1,334.479,440.1Z" transform="translate(-280.668 -343.453)"/><rect width="75.003" height="3.261" transform="translate(-0.134 96.728)"/></g></svg>