<svg xmlns="http://www.w3.org/2000/svg" width="230" height="80" viewBox="0 0 230 80"><defs><style>.a{fill:#358ada;}.b{fill:#4bb7e8;}.c{fill:#c96a28;}.d{fill:#aa391b;}.e{fill:#64e5f5;}.f{fill:#e19034;}.g{fill:#919dff;}.h{fill:#67a331;}.i{fill:#a5c73d;}.j{fill:#82b437;}.k{fill:#62a130;}.l{fill:#f6f753;}.m{fill:#fff;}</style></defs><g transform="translate(31.36)"><path class="a" d="M86.55,2.231l-15.68,8.287L66.64,8.287,82.32,0Z" transform="translate(-66.64)"/></g><g transform="translate(15.68 8.306)"><path class="b" d="M53.23,19.881l-15.68,8.287L33.32,25.937,49,17.65Z" transform="translate(-33.32 -17.65)"/></g><g transform="translate(15.68 32.796)"><path class="c" d="M37.348,72.763V89.807L33.32,87.535V70.49Z" transform="translate(-33.32 -70.49)"/></g><g transform="translate(15.68 49.647)"><path class="d" d="M37.348,108.983v17.049l-4.028-2.278V106.71Z" transform="translate(-33.32 -106.71)"/></g><g transform="translate(0 16.368)"><path class="e" d="M19.91,37.491,4.231,45.778,0,43.552,15.68,35.26Z" transform="translate(0 -35.26)"/><path class="f" d="M4.231,55.106V72.15L0,69.925V52.88Z" transform="translate(0 -44.588)"/></g><g transform="translate(9.223 4.551)"><g transform="translate(31.36)"><path class="a" d="M117.6,17.957l-15.68,8.292L86.24,17.957,101.92,9.67Z" transform="translate(-86.24 -9.67)"/><path class="g" d="M101.92,35.572V52.616L86.24,44.325V27.28Z" transform="translate(-86.24 -18.993)"/><path class="h" d="M119.56,35.572V52.616l15.68-8.292V27.28Z" transform="translate(-103.88 -18.993)"/></g><g transform="translate(15.68 8.306)"><path class="b" d="M84.28,35.607,68.6,43.9,52.92,35.607,68.6,27.32Z" transform="translate(-52.92 -27.32)"/><path class="g" d="M68.6,53.222V70.266L52.92,61.975V44.93Z" transform="translate(-52.92 -36.643)"/><path class="i" d="M86.24,53.222V70.266l15.68-8.292V44.93Z" transform="translate(-70.56 -36.643)"/></g><g transform="translate(15.68 33.265)"><path class="c" d="M68.6,89.447v17.045L52.92,98.2V81.16Z" transform="translate(-52.92 -81.16)"/><path class="j" d="M86.24,89.447v17.045L101.92,98.2V81.16Z" transform="translate(-70.56 -81.16)"/></g><g transform="translate(15.68 50.118)"><path class="d" d="M68.6,125.667v17.045l-15.68-8.287V117.38Z" transform="translate(-52.92 -117.38)"/><path class="k" d="M86.24,125.667v17.045l15.68-8.287V117.38Z" transform="translate(-70.56 -117.38)"/></g><g transform="translate(0 16.37)"><path class="e" d="M50.96,53.222,35.28,61.509,19.6,53.222,35.28,44.93Z" transform="translate(-19.6 -44.93)"/><path class="f" d="M35.28,70.837V87.882L19.6,79.595V62.55Z" transform="translate(-19.6 -54.258)"/><path class="l" d="M52.92,70.837V87.882L68.6,79.595V62.55Z" transform="translate(-37.24 -54.258)"/></g></g><g transform="translate(82.886 22.465)"><g transform="translate(0.089)"><path class="m" d="M185.038,54.35H176.76V49.47h22.546v4.88h-8.278V75.343h-5.986V54.35Z" transform="translate(-176.76 -49.023)"/><path class="m" d="M233.167,72.717q-3.085-3.071-3.087-8.758V49.47h5.986V63.738q0,6.953,5.765,6.951a5.4,5.4,0,0,0,4.287-1.68q1.475-1.68,1.478-5.266V49.47h5.915V63.959q0,5.689-3.087,8.758t-8.631,3.068Q236.259,75.785,233.167,72.717Z" transform="translate(-204.988 -49.023)"/><path class="m" d="M308.93,75.343l-4.988-7.209h-5.506v7.209H292.45V49.47h11.2a14.376,14.376,0,0,1,5.967,1.144,8.562,8.562,0,0,1,5.27,8.24,8.431,8.431,0,0,1-5.322,8.165l5.8,8.315H308.93Zm-1.515-19.83a6.291,6.291,0,0,0-4.1-1.162h-4.88v9.016h4.88a6.238,6.238,0,0,0,4.1-1.181,4.67,4.67,0,0,0,0-6.673Z" transform="translate(-238.008 -49.023)"/><path class="m" d="M350.17,49.47h5.986V75.343H350.17Z" transform="translate(-268.566 -49.023)"/><path class="m" d="M399.657,49.47V75.343h-4.918L381.845,59.635V75.343H375.93V49.47h4.951l12.861,15.708V49.47Z" transform="translate(-282.204 -49.023)"/><path class="m" d="M455.04,61.494h5.468V71.988a15.616,15.616,0,0,1-4.88,2.438,19.017,19.017,0,0,1-5.581.852,15.131,15.131,0,0,1-7.242-1.718,12.785,12.785,0,0,1-5.045-4.767,13.9,13.9,0,0,1,0-13.788,12.7,12.7,0,0,1,5.082-4.767,15.392,15.392,0,0,1,7.318-1.718,15.964,15.964,0,0,1,6.174,1.148A12.206,12.206,0,0,1,460.993,53l-3.845,3.548a8.889,8.889,0,0,0-6.692-2.918,9.111,9.111,0,0,0-4.4,1.035,7.442,7.442,0,0,0-2.993,2.918,9.177,9.177,0,0,0,0,8.612,7.562,7.562,0,0,0,2.974,2.936,8.832,8.832,0,0,0,4.344,1.054,9.735,9.735,0,0,0,4.659-1.111Z" transform="translate(-313.969 -48.52)"/></g><g transform="translate(0 34.602)"><path class="m" d="M180,124H176.57V122.37h8.781V124h-3.431v8.72H180Z" transform="translate(-176.57 -122.219)"/><path class="m" d="M207,132.008a5.051,5.051,0,0,1-2-1.906,5.5,5.5,0,0,1,0-5.459,5.082,5.082,0,0,1,2-1.906,6.262,6.262,0,0,1,5.7,0,5.072,5.072,0,0,1,2,1.9,5.52,5.52,0,0,1,0,5.468,5.137,5.137,0,0,1-2,1.9,6.262,6.262,0,0,1-5.7,0Zm4.715-1.464a3.421,3.421,0,0,0,1.3-1.3,3.944,3.944,0,0,0,0-3.736,3.327,3.327,0,0,0-1.3-1.3,3.96,3.96,0,0,0-3.727,0,3.377,3.377,0,0,0-1.3,1.3,3.944,3.944,0,0,0,0,3.736,3.346,3.346,0,0,0,1.3,1.3,3.96,3.96,0,0,0,3.727,0Z" transform="translate(-191.24 -122.05)"/><path class="m" d="M241.165,131.664a4.683,4.683,0,0,1-1.2-3.454v-5.84h1.92v5.765q0,3.049,2.631,3.045t2.616-3.045V122.37h1.892v5.84a4.708,4.708,0,0,1-1.191,3.454,5.223,5.223,0,0,1-6.673,0Z" transform="translate(-210.135 -122.219)"/><path class="m" d="M279.567,132.718l-2.113-3.031c-.089.009-.221.014-.4.014H274.72v3.016H272.8V122.37h4.259a5.721,5.721,0,0,1,2.344.442,3.416,3.416,0,0,1,1.529,1.271,3.574,3.574,0,0,1,.532,1.967,3.49,3.49,0,0,1-.569,2.009,3.408,3.408,0,0,1-1.633,1.256l2.381,3.4Zm-.692-8.188a2.958,2.958,0,0,0-1.906-.532H274.72v4.122h2.249a2.9,2.9,0,0,0,1.906-.541,1.876,1.876,0,0,0,.649-1.529A1.85,1.85,0,0,0,278.875,124.53Z" transform="translate(-227.516 -122.219)"/><path class="m" d="M312.805,122.37v10.348h-1.581l-5.708-7.007v7.007H303.61V122.37h1.581l5.708,7.007V122.37Z" transform="translate(-243.827 -122.219)"/><path class="m" d="M341.979,130.323H336.8l-1.021,2.4H333.8l4.659-10.348h1.892l4.673,10.348h-2.009Zm-.635-1.506-1.953-4.522-1.939,4.522Z" transform="translate(-259.81 -122.219)"/><path class="m" d="M377.8,132.713l-.014-6.861-3.4,5.675h-.856l-3.4-5.591v6.772H368.29V122.36h1.581l4.108,6.861,4.038-6.861H379.6l.014,10.348H377.8Z" transform="translate(-278.07 -122.214)"/><path class="m" d="M413.92,131.109v1.609h-7.76V122.37h7.553v1.609H408.08v2.692h5v1.581h-5V131.1h5.84Z" transform="translate(-298.119 -122.219)"/><path class="m" d="M444.255,122.37v10.348h-1.581l-5.708-7.007v7.007H435.06V122.37h1.581l5.708,7.007V122.37Z" transform="translate(-313.419 -122.219)"/><path class="m" d="M468.961,124H465.53V122.37h8.781V124h-3.431v8.72h-1.92Z" transform="translate(-329.55 -122.219)"/></g></g></svg>